# xmcd
#
# Track frame offsets:
#	150
#	14422
#	35474
#	55417
#	62894
#	85000
#	103907
#	112319
#	133088
#	142968
#	174890
#	189929
#	201541
#	215492
#	229298
#	245054
#
# Disc length: 3516 seconds
#
# Revision: 1
# Processed by: cddbd v1.5.2PL0 Copyright (c) Steve Scherf et al.
# Submitted via: audiograbber 1.83.01
#
DISCID=f20dba10
DTITLE=Desireless - More Love and Good Vibrations (acoustique) [CD 2)
DYEAR=2008
DGENRE=Chanson
TTITLE0=Feelin' Groovy
TTITLE1=On etait d'accord
TTITLE2=Voyage, voyage
TTITLE3=Les musiciens
TTITLE4=Je voudrais dire
TTITLE5=John
TTITLE6=Que es-tu?
TTITLE7=Un brin de paille
TTITLE8=Petite priere
TTITLE9=Flamenco indien
TTITLE10=Il y'a des jours...
TTITLE11=J'ai besoin de toi
TTITLE12=Et c'est comme ca
TTITLE13=Au bout de ma rue
TTITLE14=L'amour, l'amour
TTITLE15=Love Is My Way
EXTD=
EXTT0=
EXTT1=
EXTT2=
EXTT3=
EXTT4=
EXTT5=
EXTT6=
EXTT7=
EXTT8=
EXTT9=
EXTT10=
EXTT11=
EXTT12=
EXTT13=
EXTT14=
EXTT15=
PLAYORDER=
